<?xml version="1.0" encoding="utf-8"?>
<!-- Generator: Adobe Illustrator 27.0.1, SVG Export Plug-In . SVG Version: 6.00 Build 0)  -->
<svg version="1.1" id="Layer_1" xmlns="http://www.w3.org/2000/svg" xmlns:xlink="http://www.w3.org/1999/xlink" x="0px" y="0px"
	 viewBox="0 0 258.68 279.34" style="enable-background:new 0 0 258.68 279.34;" xml:space="preserve">
<style type="text/css">
	.st0{fill:none;stroke:#000000;stroke-width:2;stroke-linecap:round;stroke-linejoin:round;stroke-miterlimit:10;}
</style>
<g>
	<g id="Black_and_white_00000085249930387922274770000000540225331750996649_">
		<g>
			<path class="st0" d="M43.37,218.59c-16.35-19.49-26.2-44.62-26.2-72.05c0-15.81,3.27-30.86,9.18-44.51"/>
			<path class="st0" d="M232.22,101.77c5.98,13.71,9.29,28.85,9.29,44.77c0,26.82-9.41,51.44-25.12,70.74"/>
			<g>
				<g>
					<g>
						<path d="M36.31,54.84c-1.18-0.58-2.46-1.11-3.28-1.26c-1.21-0.25-1.68-0.14-3.14,1.47l-2.65,2.93l14.27,12.9
							c2.29,2.07,2.82,2.12,5.51-0.5l0.82,0.74l-7.71,8.52l-0.82-0.74c2.29-2.88,2.21-3.38-0.11-5.47l-14.27-12.9l-2.41,2.67
							c-1.46,1.61-1.71,2.24-1.28,3.53c0.27,0.88,0.76,1.75,1.5,3.11l-0.79,0.88c-1.63-1.79-3.31-3.64-4.88-5.21l0.61-0.67
							c1.1,0.2,1.36-0.15,2.1-0.97l10.49-11.6c0.74-0.82,0.84-1.16,0.68-2.1l0.64-0.7c1.38,1.24,3.59,3.04,5.42,4.42L36.31,54.84z"
							/>
						<path d="M66.03,56.73c-0.48,0.35-1.36,0.61-1.94,0.5c-0.72-0.11-1.24-0.41-1.82-0.87c-0.64,1.8-1.33,4.12-2.31,4.85
							c-2.26,1.67-5.26,0.99-6.76-1.04c-1.15-1.56-1.04-3.21,0.26-5.1c1.45-2.1,3.22-4.69,3.49-5.77l-0.47-0.64
							c-1.67-2.26-3.77-2.71-5.42-1.49c-0.73,0.54-0.92,1.22-0.95,1.84c-0.02,0.7,0.27,1.57,0.67,2.7c0.22,0.63,0.1,1.06-0.38,1.41
							c-0.6,0.44-1.87,0.4-2.43-0.37c-0.33-0.44-0.2-1.13,0.11-2.04c0.43-1.35,1.4-3.88,2.93-5.6c0.95-0.7,2.15-1.15,3.3-1.11
							c1.82,0.13,3.12,0.84,4.34,2.49l4.53,6.13c1.08,1.46,1.95,1.51,2.52,1.08c0.38-0.28,0.68-0.75,0.89-1.19l0.97,0.66
							L66.03,56.73z M57.77,50.4c-0.44,0.87-1.47,2.66-1.97,3.52c-0.81,1.43-1.09,2.58-0.22,3.75c1.24,1.68,3.08,1.51,4.1,0.76
							c0.83-0.61,1.59-1.96,1.76-3.07C60.33,53.87,58.88,51.9,57.77,50.4z"/>
						<path d="M82.28,47.21l-0.47-1c1.97-1.19,2.06-1.55,0.91-3.97l-2.79-5.89c-1.19-2.5-2.87-3.75-5.23-2.64
							c-1.46,0.69-2.45,2.21-3.08,3.73l3.96,8.35c1.17,2.46,1.42,2.43,3.62,1.65l0.47,1l-7.71,3.66l-0.47-1
							c2.24-1.37,2.38-1.61,1.27-3.97l-3.49-7.35c-1.1-2.32-1.4-2.31-3.48-1.72l-0.44-0.93c1.61-1.12,3.14-2.41,4.32-3.8
							c0.39,0.82,0.93,1.96,1.34,2.82c0.48-0.84,1.01-1.75,1.65-2.79c0.69-1.12,1.42-1.98,2.45-2.48c2.85-1.35,5.64-0.09,7.28,3.37
							l3.22,6.78c1.15,2.43,1.42,2.43,3.59,1.67l0.47,1L82.28,47.21z"/>
						<path d="M102.01,40.28c-0.55,0.52-1.12,0.84-1.5,0.95c-2.44,0.67-4.14-0.46-4.98-3.5l-3.05-11.08l-2.63,0.72l-0.28-0.42
							l0.72-1.39l1.75-0.48l-0.88-3.2c0.51-0.96,1.34-2.25,1.86-3.22l0.59-0.08c0.36,1.62,0.94,3.84,1.44,5.67l4.34-1.2
							c0.45,0.29,0.56,1.16,0.2,1.62l-4.11,1.13l2.69,9.75c0.85,3.08,2.23,3.32,3.22,3.05c0.91-0.25,1.69-0.84,2.15-1.25l0.62,0.9
							L102.01,40.28z"/>
						<path d="M121.57,37.67c-0.59,0.07-1.49-0.15-1.93-0.54c-0.57-0.45-0.87-0.98-1.14-1.66c-1.45,1.24-3.21,2.91-4.43,3.04
							c-2.79,0.31-5.05-1.77-5.33-4.29c-0.22-1.92,0.7-3.3,2.77-4.29c2.3-1.09,5.13-2.45,5.91-3.25l-0.09-0.79
							c-0.31-2.79-1.91-4.24-3.95-4c-0.9,0.1-1.4,0.6-1.74,1.11c-0.37,0.6-0.55,1.49-0.77,2.67c-0.12,0.65-0.45,0.97-1.04,1.03
							c-0.75,0.08-1.82-0.59-1.92-1.53c-0.06-0.55,0.4-1.08,1.12-1.72c1.04-0.95,3.16-2.66,5.34-3.39c1.18-0.13,2.43,0.08,3.42,0.69
							c1.51,1.02,2.29,2.29,2.52,4.33l0.86,7.57c0.2,1.81,0.93,2.28,1.64,2.2c0.47-0.05,0.96-0.31,1.36-0.59l0.52,1.05L121.57,37.67
							z M117.58,28.07c-0.81,0.53-2.61,1.57-3.46,2.06c-1.42,0.84-2.23,1.68-2.07,3.14c0.24,2.08,1.91,2.84,3.17,2.7
							c1.02-0.12,2.36-0.9,3.06-1.78C118.06,32.35,117.79,29.91,117.58,28.07z"/>
						<path d="M128.8,36.97l0.04-1.11c2.53-0.15,2.86-0.33,2.95-2.94l0.67-18.9c0.08-2.41-0.1-2.65-2.62-3.05l0.04-1.03
							c2.14-0.16,4.61-0.71,5.89-1.13c-0.07,1.85-0.13,3.75-0.2,5.6l-0.66,18.63c-0.09,2.61,0.14,2.81,2.69,3.14l-0.04,1.11
							L128.8,36.97z"/>
						<path d="M142.62,37.77l0.17-1.09c2.5,0.15,2.8,0,3.21-2.66l1.26-8.04c0.38-2.42,0.29-2.59-2-3.35l0.15-0.94
							c2.08-0.03,4-0.25,5.79-0.69c-0.26,1.64-0.51,3.28-0.77,4.92l-1.34,8.59c-0.42,2.65-0.17,2.89,2.33,3.52l-0.17,1.09
							L142.62,37.77z M150.05,16.91c-1.09-0.17-1.92-1.3-1.74-2.39c0.2-1.25,1.31-1.99,2.44-1.82c1.09,0.17,1.85,1.21,1.66,2.46
							C152.23,16.25,151.18,17.08,150.05,16.91z"/>
						<path d="M171.94,39.71c-0.95,1.32-2.37,3.23-3.12,4.32l-12.67-3.94l-0.04-0.67c4.76-3.73,9.52-7.75,14.13-11.65
							c-0.19-0.06-3.58-1.11-3.66-1.14c-2.68-0.83-3.26-0.56-5.74,2.23l-0.95-0.67c0.86-1.3,2.08-3.49,2.86-5.07l0.83,0.26
							c0.05,0.64,0.47,1.02,1.87,1.45l8.9,2.77l0.05,0.64c-4.39,3.6-9.3,7.69-13.99,11.74l4.04,1.25c2.87,0.89,3.97,0.41,6.65-2.23
							L171.94,39.71z"/>
						<path d="M174.57,46.46l0.48-1c2.35,0.86,2.68,0.8,3.84-1.62l3.5-7.34c1.05-2.21,1.02-2.4-0.95-3.78l0.41-0.86
							c2.01,0.56,3.9,0.9,5.74,0.99c-0.71,1.5-1.43,2.99-2.14,4.49l-3.74,7.84c-1.16,2.42-0.99,2.72,1.22,4.04l-0.48,1L174.57,46.46
							z M187.64,28.59c-1-0.48-1.46-1.79-0.99-2.79c0.54-1.14,1.83-1.54,2.86-1.04c1,0.48,1.43,1.69,0.88,2.83
							C189.92,28.58,188.68,29.08,187.64,28.59z"/>
						<path d="M196.13,58.75l0.63-0.91c2.02,1.11,2.37,1.02,3.9-1.19l3.71-5.36c1.57-2.27,1.82-4.36-0.32-5.84
							c-1.33-0.92-3.14-1.02-4.77-0.81l-5.26,7.6c-1.55,2.24-1.4,2.44,0.38,3.96l-0.63,0.91l-7.01-4.86l0.63-0.91
							c2.3,1.26,2.58,1.26,4.07-0.88l4.63-6.69c1.46-2.11,1.3-2.37-0.25-3.87l0.58-0.84c1.77,0.84,3.65,1.52,5.45,1.85
							c-0.52,0.75-1.24,1.79-1.78,2.57c0.96,0,2.02,0,3.24,0.04c1.31,0.04,2.43,0.24,3.37,0.89c2.6,1.8,2.89,4.84,0.71,7.99
							l-4.27,6.17c-1.53,2.21-1.4,2.44,0.35,3.94l-0.63,0.91L196.13,58.75z"/>
						<path d="M214.57,66.67c-1.2-0.15-1.98,0.13-2.32,0.46c-0.51,0.5-0.6,1.53,0.65,2.8c1.03,1.04,2.22,2.19,3.14,3.12
							c1.78,1.8,3.46,4.69,0.68,7.43c-2.92,2.89-9.09,2.15-12.78-1.58c-3.14-3.17-2.98-6.72-1.37-8.42c0.62-0.61,1.4-0.88,2.29-0.88
							c1.15-0.02,3.16,0.16,4.3,0.3c-0.72-1.29-0.79-2.66-0.57-3.61c0.17-0.67,0.59-1.25,0.88-1.53c1.45,0.68,3.18,0.86,4.49,0.67
							L214.57,66.67z M212.1,73.05c-1.36-1.38-2.14-1.83-3.06-1.92c-1.42-0.15-2.82,0.12-3.64,0.93c-1.55,1.53-1.12,4.27,1.02,6.43
							c2.64,2.67,5.51,2.83,7.31,1.05c0.96-0.94,1.27-2.14,0.83-3.26C214.18,75.27,213.27,74.23,212.1,73.05z M215.62,68.3
							c-2.58-2.61-3.12-6.36-0.48-8.97c3.2-3.16,7.52-1.77,9.69,0.42c0.92,0.93,1.58,2.1,1.96,3.39c1.28,1.29,3.17,2.75,4.14,3.35
							l-0.09,0.42c-0.62,0.28-1.85,0.6-2.52,0.43c-0.42-0.42-1.22-1.46-1.58-1.88c-0.17,1.12-0.74,2.34-1.75,3.34
							C221.94,71.82,218.01,70.71,215.62,68.3z M223.66,60.36c-1.25-1.26-3.51-1.25-5.73,0.94c-2.22,2.19-2.65,4.84-1.13,6.39
							c1.28,1.18,3.4,1.25,5.68-1C224.66,64.52,225.21,61.93,223.66,60.36z"/>
					</g>
				</g>
			</g>
			<g>
				<g>
					<g>
						<path d="M77.23,240.96c4.97,0,8.11,0.99,10.3,3.07c1.73,1.69,3,4.16,3,7.55c0,4.13-1.69,7.48-4.41,9.52
							c-2.68,2.01-6.1,2.79-10.44,2.79h-8.25v-0.99c3.03-0.28,3.17-0.53,3.17-3.42V245.4c0-3.03-0.42-3.17-3.17-3.46v-0.99H77.23z
							 M73.67,259.19c0,2.65,1.13,3.39,3.77,3.39c6.35,0,9.59-4.34,9.59-10.51c0-3.84-1.3-6.77-4.09-8.46
							c-1.62-1.02-3.67-1.41-6.03-1.41c-1.59,0-2.43,0.21-2.79,0.49c-0.32,0.21-0.46,0.6-0.46,1.97V259.19z"/>
						<path d="M108.54,260.88c-2.26,2.82-4.73,3.42-5.85,3.42c-4.3,0-6.91-3.53-6.91-7.58c0-2.4,0.85-4.62,2.29-6.17
							c1.48-1.66,3.42-2.57,5.25-2.57c3.07,0,5.4,2.64,5.4,5.47c-0.04,0.71-0.14,1.02-0.71,1.16c-0.71,0.14-5.22,0.46-9.42,0.6
							c-0.11,4.73,2.79,6.67,5.29,6.67c1.45,0,2.79-0.6,4.09-1.8L108.54,260.88z M102.47,249.31c-1.62,0-3.21,1.52-3.7,4.37
							c1.97,0,3.95,0,6.03-0.11c0.63,0,0.85-0.18,0.85-0.71C105.68,251,104.45,249.31,102.47,249.31z"/>
						<path d="M122.29,252.59c-0.63-2.04-1.55-3.46-3.7-3.46c-1.23,0-2.19,0.88-2.19,2.29c0,1.52,1.02,2.22,3,3.14
							c3.03,1.45,4.55,2.5,4.55,4.83c0,3.24-2.96,4.9-5.75,4.9c-1.83,0-3.46-0.56-4.2-0.99c-0.18-1.02-0.49-2.96-0.63-4.13
							l1.02-0.18c0.63,2.26,1.87,4.09,4.34,4.09c1.34,0,2.47-0.92,2.47-2.4c0-1.59-0.95-2.4-2.82-3.31
							c-2.47-1.2-4.48-2.33-4.48-4.87c0-2.57,2.19-4.55,5.5-4.55c1.48,0,2.68,0.35,3.39,0.46c0.11,0.85,0.35,3.07,0.53,3.91
							L122.29,252.59z"/>
						<path d="M128.46,263.88v-0.99c2.22-0.21,2.47-0.39,2.47-2.79v-7.26c0-2.19-0.11-2.33-2.22-2.68v-0.85
							c1.83-0.32,3.49-0.78,5.01-1.41c0,1.48,0,2.96,0,4.44v7.76c0,2.4,0.25,2.57,2.54,2.79v0.99H128.46z M132.13,244.45
							c-0.99,0-1.87-0.88-1.87-1.87c0-1.13,0.88-1.94,1.9-1.94c0.99,0,1.8,0.81,1.8,1.94C133.96,243.56,133.15,244.45,132.13,244.45
							z"/>
						<path d="M145.28,258.73c-0.85,0.67-1.16,1.34-1.16,1.76c0,0.63,0.6,1.34,2.19,1.34c1.3,0,2.79-0.04,3.95-0.04
							c2.26,0,5.15,0.74,5.15,4.23c0,3.67-4.34,7.12-9.03,7.12c-3.98,0-6.14-2.33-6.21-4.41c0-0.78,0.32-1.45,0.88-2.01
							c0.71-0.74,2.08-1.9,2.89-2.54c-1.27-0.35-2.19-1.16-2.65-1.9c-0.32-0.53-0.42-1.16-0.42-1.52c1.34-0.49,2.54-1.48,3.24-2.43
							L145.28,258.73z M146.97,259.08c-3.28,0-6-2.01-6-5.32c0-4.02,3.6-5.89,6.35-5.89c1.16,0,2.33,0.32,3.39,0.88
							c1.62,0,3.74-0.28,4.72-0.53l0.21,0.32c-0.21,0.56-0.78,1.55-1.3,1.87c-0.53,0-1.69-0.14-2.19-0.18
							c0.6,0.81,1.02,1.94,1.02,3.21C153.18,257.28,150,259.08,146.97,259.08z M147.78,264.3c-1.73,0-2.5,0.21-3.14,0.74
							c-0.99,0.81-1.69,1.87-1.69,2.89c0,1.94,2.01,3.38,4.72,3.38c3.35,0,5.25-1.73,5.25-3.98c0-1.2-0.56-2.15-1.55-2.57
							C150.5,264.37,149.26,264.3,147.78,264.3z M146.97,249c-1.59,0-3,1.45-3,4.23s1.41,4.73,3.35,4.73
							c1.55-0.07,2.93-1.38,2.93-4.23C150.25,250.97,148.95,249,146.97,249z"/>
						<path d="M169.22,263.88v-0.99c2.05-0.21,2.26-0.46,2.26-2.86v-5.82c0-2.47-0.88-4.13-3.21-4.13c-1.45,0-2.82,0.85-3.91,1.83
							v8.25c0,2.43,0.21,2.5,2.29,2.71v0.99h-7.62v-0.99c2.33-0.25,2.54-0.39,2.54-2.71v-7.26c0-2.29-0.25-2.4-2.15-2.71v-0.92
							c1.73-0.28,3.46-0.74,4.94-1.41c0,0.81,0,1.94,0,2.79c0.71-0.49,1.48-1.02,2.4-1.62c0.99-0.63,1.9-1.06,2.93-1.06
							c2.82,0,4.58,2.08,4.58,5.5v6.7c0,2.4,0.21,2.5,2.26,2.71v0.99H169.22z"/>
						<path d="M190.06,252.59c-0.63-2.04-1.55-3.46-3.7-3.46c-1.23,0-2.19,0.88-2.19,2.29c0,1.52,1.02,2.22,3,3.14
							c3.03,1.45,4.55,2.5,4.55,4.83c0,3.24-2.96,4.9-5.75,4.9c-1.83,0-3.46-0.56-4.2-0.99c-0.18-1.02-0.49-2.96-0.63-4.13
							l1.02-0.18c0.63,2.26,1.87,4.09,4.34,4.09c1.34,0,2.47-0.92,2.47-2.4c0-1.59-0.95-2.4-2.82-3.31
							c-2.47-1.2-4.48-2.33-4.48-4.87c0-2.57,2.19-4.55,5.5-4.55c1.48,0,2.68,0.35,3.38,0.46c0.11,0.85,0.35,3.07,0.53,3.91
							L190.06,252.59z"/>
					</g>
				</g>
			</g>
		</g>
		<g id="Theban_flower_00000067934488784422330280000016307406686816871330_">
			<g id="Flower_theban_00000049936593802096666020000010807409705936315064_">
				<g>
					<path d="M125.7,96.05c-8.69-11.24-14.2-13.87-16.38,2.7c-1.13,10.74-0.43,21.84,0.4,32.64c0.02,0.02-1.67,0.24-1.67,0.24
						c-2.07-9.45-3.95-19.94-5.61-29.52c-0.84-6.26-2.61-12.27-6.17-17.48c-2.86-4.1-7.67-9.5-12.72-9.03
						c-2.09,0.22-4.24,1.87-6.15,4c-5.14,5.03-7.01,12.74-6.86,19.85c1.21,24.85,24.53,45.82,42.94,60.45
						c-3.74-1.59-22.19-9.41-26.33-11.16c-5.86-2.46-14.68-6.22-20.51-8.56c0,0,0.7-1.52,0.7-1.52c7.4,3.99,14.38,8.64,21.17,13.62
						c14.67,11.17,40.26,33.05,32.83,53.8c-1.82,4.84-5.47,8.63-9.06,11.29c-11.16,8.54-26.93,9.97-39.41,3.59
						c-13.72-6.93-16.17-21.19-1.74-29.14c5.34-2.81,12.21-3.27,17.3,0.29c2.68,1.92,3.16,5.39,0.81,7.84
						c-2.43,2.48-5.75,3.55-8.9,4.45c-0.45,0.12-0.91-0.15-1.04-0.6c-0.11-0.41,0.1-0.83,0.48-0.99c2.62-1.23,5.39-2.56,7.15-4.78
						c0,0,0.29-0.49,0.29-0.49l0.18-0.45c0.32-1.65-2-2.41-3.43-2.76c-4.37-0.92-9.11,0.71-12.33,3.69
						c-2.96,2.53-5.31,6.37-3.23,10.07c2.22,4.2,7.97,7.12,12.82,8.28c8.98,2.18,18.93,0.26,26.22-5.36
						c14.91-10.41,4.02-26.82-4.86-37.53c-11.66-13.74-25.74-25.26-39.91-36.36c0,0,4.46,1.44,4.46,1.44
						c1.53,0.58,3.71,1.51,5.24,2.14c3.24,1.35,12.08,5.07,15.43,6.48c0,0,20.54,8.71,20.54,8.71c0,0-0.82,1.47-0.83,1.46
						c-20.22-13.01-41.59-32-43.55-57.63c-0.68-11.14,3.9-22.66,12.67-28.54c9.76-6.62,19.86,1.68,24.88,10.05
						c3.85,6.02,5.56,13.2,5.99,20.21c0.85,9.71,1.78,20.28,2.2,29.97c0,0-1.67,0.23-1.67,0.23c-1.06-5.46-1.81-10.95-2.27-16.5
						c-0.54-8.4-1.09-17.09,1.61-25.33c2.83-8.28,10.42-8.88,15.56-2.04c1.85,2.3,3.22,4.78,4.24,7.48c0.17,0.44-0.06,0.93-0.5,1.09
						C126.32,96.48,125.92,96.35,125.7,96.05L125.7,96.05z"/>
				</g>
			</g>
			<g id="Flower_theban_00000165214409491850771980000014379015326665677209_">
				<g>
					<path d="M130.4,94.93c2.15-6.66,10.15-17.34,17.31-9.88c5.67,7.07,4.76,20.86,4.38,29.46c-0.39,5.55-1.05,11.05-2.03,16.52
						c0.01,0.02-1.67-0.21-1.68-0.2c0.28-9.67,1.05-20.3,1.76-30c0.33-7.01,1.93-14.22,5.7-20.29c7.19-12.12,19.11-17.77,28.97-6.81
						c6.57,6.43,9.13,15.85,8.85,24.75c-0.61,13.12-6.9,24.6-14.99,34.33c-7.9,9.36-17.51,17.31-27.73,23.92
						c0,0-0.85-1.45-0.85-1.45c9.44-4.16,26.45-11.68,35.75-15.71c1.51-0.65,3.67-1.6,5.21-2.21c0,0,4.44-1.5,4.44-1.5
						c-14.01,11.31-27.92,23.03-39.38,36.94c-6.26,8.07-14.8,19.48-10.91,29.9c1.24,3.15,3.9,5.67,6.6,7.69
						c6.27,4.68,14.36,6.67,22.19,5.75c11.81-1.3,25.87-11.3,11.21-20.92c-2.89-1.81-6.8-2.61-10.17-1.85
						c-1.24,0.32-3.02,0.95-3.39,2.1c-0.36,2.7,5.52,5.33,7.7,6.32c0.43,0.18,0.64,0.69,0.44,1.12c-0.17,0.38-0.59,0.58-0.98,0.48
						c-2.06-0.52-4.11-1.19-6.11-2.22c-2.19-1.17-4.73-3.3-4.42-6.15c0.28-2.94,3.14-4.73,5.61-5.57c4.61-1.52,9.62-1.01,13.95,1.23
						c14.54,7.75,12.33,22.01-1.31,29.16c-12.39,6.56-28.17,5.36-39.46-3.02c-8.52-5.9-12.77-15.42-9.78-25.84
						c6.37-21.84,34.47-42.52,53.56-53.52c0,0,0.72,1.51,0.72,1.51c-1.27,0.53-3.79,1.61-5.06,2.16c-9.23,4-26.37,11.57-35.74,15.71
						c0,0-5.75,2.54-5.75,2.54c18.18-14.87,41.23-36.23,42.06-61.06c0.05-7.11-1.93-14.8-7.15-19.74c-1.93-2.1-4.11-3.72-6.2-3.91
						c-5.06-0.4-9.78,5.08-12.59,9.21c-3.48,5.26-5.17,11.29-5.91,17.57c-1.52,9.63-3.25,20.1-5.18,29.6c0-0.01-1.69-0.2-1.67-0.22
						c0.67-10.81,1.22-21.92-0.07-32.64c-2.38-16.35-7.79-13.99-16.42-2.46C131.35,96.52,130.06,95.82,130.4,94.93L130.4,94.93z"/>
				</g>
			</g>
		</g>
	</g>
</g>
</svg>
